<svg xmlns="http://www.w3.org/2000/svg" width="513" height="513" viewBox="0 0 513 513" version="1.1">
	<path d="M 185.542 0.681 C 184.465 0.981, 182.493 1.941, 181.160 2.815 C 178.262 4.713, 37.085 216.118, 35.698 220.636 C 35.168 222.360, 35.033 225.362, 35.398 227.306 C 35.875 229.851, 50.663 250.532, 88.215 301.170 C 116.900 339.852, 140.376 372.175, 140.385 373 C 140.394 373.825, 133.508 402.050, 125.084 435.723 C 113.188 483.271, 109.916 497.738, 110.433 500.494 C 111.314 505.193, 116.298 510.718, 120.843 512.035 C 123.360 512.765, 165.499 513.002, 256 512.798 L 387.500 512.500 390.867 510.099 C 392.718 508.778, 395.071 505.853, 396.095 503.599 C 397.821 499.798, 397.958 496.221, 397.978 454.471 L 398 409.443 406.745 402.471 C 423.483 389.128, 436.945 368.176, 442.710 346.500 L 445.369 336.500 445.764 290.627 L 446.159 244.754 461.695 221.445 C 479.035 195.429, 480.043 192.924, 476.200 185.393 C 474.365 181.795, 461.426 173.181, 334.602 91.123 C 190.915 -1.845, 192.076 -1.141, 185.542 0.681 M 174.662 64.997 C 164.398 80.395, 156 93.337, 156 93.757 C 156 94.581, 202.365 118, 203.996 118 C 205.011 118, 239 67.690, 239 66.187 C 239 65.255, 195.649 37, 194.219 37 C 193.726 37, 184.925 49.599, 174.662 64.997 M 247.994 107.508 C 239.023 120.988, 231.867 132.188, 232.092 132.397 C 232.316 132.606, 243.358 138.202, 256.628 144.831 L 280.756 156.886 295.378 134.947 C 303.420 122.880, 310 112.623, 310 112.154 C 310 111.181, 266.772 83, 265.280 83 C 264.744 83, 256.966 94.029, 247.994 107.508 M 103.624 171.564 L 68.756 223.885 73.716 230.693 C 76.443 234.437, 98.840 264.712, 123.486 297.971 C 148.133 331.229, 169.129 359.804, 170.145 361.471 C 171.177 363.162, 171.994 366.383, 171.996 368.764 C 171.998 371.109, 165.925 397.315, 158.500 427 C 151.075 456.685, 145 481.203, 145 481.486 C 145 481.769, 194.932 482, 255.960 482 L 366.919 482 367.210 439.072 C 367.547 389.248, 366.440 394.082, 379.579 385.063 C 406.945 366.280, 416.692 344.474, 415.798 304.029 L 415.500 290.558 411.834 295.664 C 409.098 299.475, 406.986 301.222, 403.506 302.551 C 399.202 304.195, 398.484 304.212, 394.172 302.782 C 391.602 301.930, 358.057 287.230, 319.626 270.116 C 281.196 253.002, 248.911 239, 247.883 239 C 246.368 239, 251.220 249.421, 273.507 294.032 C 294.138 335.328, 301 349.958, 301 352.646 C 301 360.341, 293.421 368.021, 285.864 367.984 C 284.014 367.975, 280.700 366.962, 278.500 365.734 C 274.651 363.584, 273.318 361.146, 243.236 301.250 L 211.972 239 182.390 239 C 149.446 239, 148.976 238.914, 144.764 232.112 C 140.230 224.789, 143.071 215.261, 150.985 211.250 C 155.394 209.015, 155.729 209, 200.694 209 L 245.965 209 254.995 195.508 L 264.025 182.016 201.258 150.629 L 138.492 119.243 103.624 171.564 M 306.042 172.937 L 276.118 217.806 297.669 227.403 C 309.522 232.681, 319.618 237, 320.106 237 C 320.594 237, 333.363 218.447, 348.483 195.772 C 369.791 163.816, 375.695 154.291, 374.736 153.418 C 374.056 152.799, 365.055 146.841, 354.733 140.179 L 335.966 128.067 306.042 172.937 M 374.923 210.116 C 360.573 231.630, 349.208 249.603, 349.666 250.056 C 350.125 250.509, 360.027 255.124, 371.672 260.313 L 392.843 269.747 417.255 233.124 L 441.668 196.500 421.964 183.750 C 411.127 176.738, 401.980 171, 401.637 171 C 401.293 171, 389.272 188.602, 374.923 210.116" stroke="none" fill="black" fill-rule="evenodd"/>
</svg>