<?xml version="1.0" encoding="utf-8"?>
<!-- Generator: Adobe Illustrator 16.0.0, SVG Export Plug-In . SVG Version: 6.00 Build 0)  -->
<!DOCTYPE svg PUBLIC "-//W3C//DTD SVG 1.1//EN" "http://www.w3.org/Graphics/SVG/1.1/DTD/svg11.dtd">
<svg version="1.1" id="Layer_1" xmlns="http://www.w3.org/2000/svg" xmlns:xlink="http://www.w3.org/1999/xlink" x="0px" y="0px"
	 width="512px" height="512px" viewBox="0 0 512 512" enable-background="new 0 0 512 512" xml:space="preserve">
<path d="M476.877,188.692c-0.813-3.93-3.169-7.371-6.539-9.551L197.205,2.408c-6.888-4.457-16.078-2.554-20.63,4.272L37.33,215.547
	c-3.509,5.264-3.338,12.165,0.428,17.248l102.894,138.906l-30.415,121.659c-1.12,4.481-0.113,9.229,2.729,12.869
	c2.843,3.641,7.204,5.769,11.823,5.769h257.066c8.285,0,15-6.716,15-15v-88.379l1.42-0.945c29.292-19.528,46.78-52.203,46.78-87.407
	v-75.792l29.614-44.42C476.896,196.715,477.691,192.623,476.877,188.692L476.877,188.692z"/>
<g>
	<polygon fill="#F9E54E" points="375.795,153.7 320.156,237.157 275.671,217.387 335.507,127.632 	"/>
	<polygon fill="#F9E54E" points="310.318,111.332 280.318,156.33 231.044,131.693 264.418,81.633 	"/>
	<polygon fill="#F9E54E" points="193.329,35.633 239.229,65.333 204.003,118.171 154.729,93.534 	"/>
	<path fill="#F9E54E" d="M415.057,320.267c0,25.149-12.494,48.494-33.422,62.446c-4.846,3.229-8.119,5.42-8.119,5.42
		c-4.162,2.784-6.66,7.46-6.66,12.467V482H144l27.474-109.896c1.088-4.352,0.171-8.962-2.499-12.566L68.142,223.414l69.816-104.725
		l125.591,62.795l-18.255,27.384h-88.373c-8.284,0-15,6.716-15,15c0,8.283,6.716,15,15,15h54.997l60.12,120.24
		c3.705,7.41,12.715,10.414,20.125,6.708c7.41-3.705,10.413-12.715,6.708-20.124L245.46,238.868h4.68l141.69,62.973
		c6.678,2.969,14.521,0.691,18.573-5.386l4.653-6.98V320.267z"/>
	<polygon fill="#F9E54E" points="392.457,269.29 347.973,249.519 400.986,169.998 441.274,196.067 	"/>
</g>
</svg>
