<svg height="512" viewBox="0 0 512 512" width="512" xmlns="http://www.w3.org/2000/svg"><path d="m314.626 185.75-19.5-13a16 16 0 0 1 -7.126-13.313v-23.437h-64v23.437a16 16 0 0 1 -7.125 13.313l-19.5 13a48 48 0 0 0 -21.375 39.939v262.311a16 16 0 0 0 16 16h128a16 16 0 0 0 16-16v-262.311a48 48 0 0 0 -21.374-39.939z" fill="#e13741"/><path d="m198 488h-12v-262.311a37.926 37.926 0 0 1 16.921-31.618l19.5-13a25.947 25.947 0 0 0 11.579-21.634v-23.437h12v23.437a37.926 37.926 0 0 1 -16.921 31.618l-19.5 13a25.947 25.947 0 0 0 -11.579 21.634z" fill="#ff555f"/><rect fill="#736969" height="32" rx="8" width="80" x="216" y="8"/><path d="m288 8h-40a8 8 0 0 1 8 8v16a8 8 0 0 1 -8 8h40a8 8 0 0 0 8-8v-16a8 8 0 0 0 -8-8z" fill="#3c413c"/><path d="m314.626 185.75-19.5-13a16 16 0 0 1 -7.126-13.313v-23.437h-32v352h-80a16 16 0 0 0 16 16h128a16 16 0 0 0 16-16v-262.311a48 48 0 0 0 -21.374-39.939z" fill="#aa2823"/><path d="m224 40h32v96h-32z" fill="#736969"/><path d="m256 40h32v96h-32z" fill="#3c413c"/><path d="m224 40h32v8h-32z" fill="#3c413c"/><path d="m176 261.333h80v149.333h-80z" fill="#d7e6f0"/><path d="m256 261.333h80v149.333h-80z" fill="#a5c3dc"/><path d="m186 261.333h12v149.333h-12z" fill="#fff"/></svg>